<svg xmlns="http://www.w3.org/2000/svg" height="20" width="20" viewBox="0 0 20 20">
    <path fill="#ffffff" d="M19,15c0,0.275-0.225,0.5-0.5,0.5h-7c-0.275,0-0.5-0.225-0.5-0.5s0.225-0.5,0.5-0.5h7C18.775,14.5,19,14.725,19,15z"/>
    <path fill="#ffffff" d="M6,15c0,0.275-0.224,0.5-0.5,0.5h-4C1.225,15.5,1,15.275,1,15s0.224-0.5,0.5-0.5h4C5.776,14.5,6,14.725,6,15z"/>
    <path fill="#ffffff" d="M10,14.4V15.6c0,0.497-0.673,0.9-1.5,0.9S7,16.097,7,15.6V14.4c0-0.497,0.673-0.9,1.5-0.9S10,13.903,10,14.4z M8,15.6C8,15.766,8.225,15.9,8.5,15.9S9,15.766,9,15.6V14.4C9,14.234,8.776,14.1,8.5,14.1S8,14.234,8,14.4V15.6z"/>
    <path fill="#ffffff" d="M19,10c0,0.276-0.225,0.5-0.5,0.5h-3c-0.275,0-0.5-0.224-0.5-0.5s0.225-0.5,0.5-0.5h3C18.775,9.5,19,9.724,19,10z"/>
    <path fill="#ffffff" d="M10,10c0,0.276-0.224,0.5-0.5,0.5h-8C1.225,10.5,1,10.276,1,10s0.224-0.5,0.5-0.5h8C9.776,9.5,10,9.724,10,10z"/>
    <path fill="#ffffff" d="M14,9.4v1.2c0,0.497-0.672,0.9-1.5,0.9c-0.826,0-1.5-0.403-1.5-0.9V9.4c0-0.496,0.674-0.9,1.5-0.9C13.328,8.5,14,8.904,14,9.4z M12,10.6c0,0.166,0.225,0.301,0.5,0.301S13,10.766,13,10.6V9.4c0-0.165-0.225-0.3-0.5-0.3S12,9.235,12,9.4V10.6z"/>
    <path fill="#ffffff" d="M19,5c0,0.275-0.225,0.5-0.5,0.5h-9C9.225,5.5,9,5.275,9,5s0.224-0.5,0.5-0.5h9C18.775,4.5,19,4.725,19,5z"/>
    <path fill="#ffffff" d="M4,5c0,0.275-0.224,0.5-0.5,0.5h-2C1.225,5.5,1,5.275,1,5s0.224-0.5,0.5-0.5h2C3.776,4.5,4,4.725,4,5z"/>
    <path fill="#ffffff" d="M8,4.4v1.2c0,0.496-0.673,0.9-1.5,0.9S5,6.096,5,5.6V4.4c0-0.496,0.673-0.9,1.5-0.9S8,3.904,8,4.4z M6,5.6c0,0.165,0.224,0.3,0.5,0.3S7,5.765,7,5.6V4.4c0-0.165-0.224-0.3-0.5-0.3S6,4.235,6,4.4V5.6z"/>'
    
</svg>
