<svg xmlns="http://www.w3.org/2000/svg" height="20" width="20" viewBox="0 0 20 20">
    <path fill="#ffffff" d="M9.5 20c-2.538 0-4.923-0.988-6.718-2.782s-2.782-4.18-2.782-6.717 0.988-4.923 2.782-6.718 4.18-2.783 6.718-2.783 4.923 0.988 6.718 2.783 2.782 4.18 2.782 6.718c0 2.538-0.988 4.923-2.782 6.717s-4.18 2.782-6.718 2.782zM9.5 2c-4.687 0-8.5 3.813-8.5 8.5s3.813 8.5 8.5 8.5c4.687 0 8.5-3.813 8.5-8.5s-3.813-8.5-8.5-8.5z"></path>
    <path fill="#ffffff" d="M9.5 15c-0.053 0-0.106-0.008-0.158-0.026-0.204-0.068-0.342-0.259-0.342-0.474v-8c0-0.215 0.138-0.406 0.342-0.474s0.429 0.002 0.558 0.174l3 4c0.133 0.178 0.133 0.422 0 0.6l-3 4c-0.096 0.128-0.246 0.2-0.4 0.2zM10 8v5l1.875-2.5-1.875-2.5z"></path>
    <path fill="#ffffff" d="M13.5 15c-0.276 0-0.5-0.224-0.5-0.5v-8c0-0.276 0.224-0.5 0.5-0.5s0.5 0.224 0.5 0.5v8c0 0.276-0.224 0.5-0.5 0.5z"></path>
    <path fill="#ffffff" d="M5.5 15c-0.053 0-0.106-0.008-0.158-0.026-0.204-0.068-0.342-0.259-0.342-0.474v-8c0-0.215 0.138-0.406 0.342-0.474s0.429 0.002 0.558 0.174l3 4c0.133 0.178 0.133 0.422 0 0.6l-3 4c-0.096 0.128-0.246 0.2-0.4 0.2zM6 8v5l1.875-2.5-1.875-2.5z"></path>'
    
</svg>
